Coordinates
version=1
nRows=7
nColumns=33
inDegrees=yes

Units are S.I. units (second, meters, Newtons, ...)
Angles are in degrees.

endheader
time	ground_thorax_rot_x	ground_thorax_rot_y	ground_thorax_rot_z	ground_thorax_tx	ground_thorax_ty	ground_thorax_tz	clav_prot_r	clav_elev_r	scapula_abduction_r	scapula_elevation_r	scapula_upward_rot_r	scapula_winging_r	shoulder_elv_r	plane_of_elev_r	axial_rot_r	elbow_flexion_r	pro_sup_r	wrist_flex_r	wrist_dev_r	clav_prot_l	clav_elev_l	scapula_abduction_l	scapula_elevation_l	scapula_upward_rot_l	scapula_winging_l	shoulder_elv_l	plane_of_elev_l	axial_rot_l	elbow_flexion_l	pro_sup_l	wrist_flex_l	wrist_dev_l
      4.43000000	    -41.04898045	     -4.70946690	     -2.45192307	    -82.33576724	    794.78316883	     -4.11047900	     11.34437387	    -45.00000000	     42.02121332	    -45.00000000	    -45.00000000	  -1883.17506514	  -2986.84140358	    146.85396727	    179.99999979	   1085.55566641	     51.42688630	     22.58036414	     15.21672999	     18.21602167	     43.10933923	    -43.82677561	    -44.47436109	    -33.58952254	   1159.93826887	  -3893.99933635	     23.20053700	    -30.16371741	   1806.56227096	     25.21368063	      9.94196153	    -19.32832174
      4.44000000	    -40.92051391	     -4.34568030	     -2.68450469	    -88.24037009	    795.22667324	     -4.49019384	     11.40600400	    -45.00000000	     41.68416537	    -45.00000000	    -45.00000000	  -1883.46404902	  -2986.94643235	    147.14639791	    179.99999979	   1085.51263480	     51.81579132	     22.60875487	     15.26169489	     18.29467493	     43.17146905	    -43.57162839	    -44.64178732	    -35.03729507	   1159.18530142	  -3893.59093630	     23.67619423	    -26.83040117	   1806.36024566	     24.36301511	     10.47513641	    -19.45183693
      4.45000000	    -40.93813760	     -4.41605762	     -2.69121242	    -94.18159008	    795.79536067	     -4.85519617	     11.63495043	    -45.00000000	     41.59666843	    -45.00000000	    -45.00000000	  -1883.81364018	  -2987.28968843	    147.47598167	    179.99999979	   1085.28268366	     52.25822866	     22.72445785	     15.33034039	     17.98260059	     42.96433211	    -43.08223842	    -44.81546983	    -35.88967611	   1159.05347973	  -3893.49965092	     23.79162179	    -26.59661516	   1806.40150995	     24.22055334	     10.60284007	    -19.52514240
      4.46000000	    -40.91027134	     -4.47970330	     -2.57332510	   -100.13414386	    796.50215483	     -5.20456944	     11.94575469	    -45.00000000	     41.29409883	    -45.00000000	    -45.00000000	  -1884.08123648	  -2987.52865760	    147.94847305	    179.99999979	   1085.00910701	     52.71457494	     22.83463920	     15.33734538	     18.04652573	     42.70350440	    -42.54799135	    -44.93082805	    -36.41260111	   1158.84122774	  -3893.38371432	     23.67229477	    -27.21070184	   1806.47346572	     24.25003437	     10.61503101	    -19.53137062
      4.47000000	    -40.79780408	     -4.54542410	     -2.42868679	   -106.07040673	    797.35483077	     -5.53933802	     11.41662159	    -45.00000000	     41.25055799	    -45.00000000	    -45.00000000	  -1884.85222547	  -2987.91418341	    148.10601171	    179.99999979	   1084.81244017	     52.96594783	     23.20259099	     15.56823345	     17.21660149	     43.32489008	    -42.62447806	    -44.42979495	    -34.84635180	   1160.50360593	  -3894.36135776	     22.80544702	    -34.06709878	   1806.85677389	     25.40725479	      9.69966815	    -19.43173993
      4.48000000	    -40.84395093	     -4.32086733	     -2.73575166	   -111.96944804	    798.36776476	     -5.85974340	     11.86400541	    -45.00000000	     41.04265129	    -45.00000000	    -45.00000000	  -1884.84797066	  -2988.03101842	    148.50843775	    179.99999979	   1084.73127542	     53.77047789	     23.16973319	     15.35795570	     18.00880239	     42.33827784	    -41.94615506	    -45.00000000	    -37.62022829	   1158.84730304	  -3893.32467185	     23.66503224	    -27.48547392	   1806.71290926	     24.09196362	     10.79288132	    -19.67125593
      4.49000000	    -40.79462750	     -4.56902542	     -2.49480996	   -117.80633873	    799.54154501	     -6.16830218	     11.89053477	    -45.00000000	     41.04761138	    -45.00000000	    -45.00000000	  -1885.84028049	  -2988.53190077	    148.40203986	    179.99999979	   1084.34488828	     54.28888083	     23.50051930	     15.51717122	     17.89932142	     42.41196887	    -41.16604976	    -45.00000000	    -37.38841035	   1159.05055134	  -3893.43792937	     23.27376340	    -30.76002670	   1807.07732990	     24.74183143	     10.00084709	    -19.52454808
